<svg width="35" height="34" viewBox="0 0 35 34" fill="none" xmlns="http://www.w3.org/2000/svg">
<path d="M32.3333 0.333313H2.66665C2.18042 0.333313 1.7141 0.526467 1.37028 0.870284C1.02647 1.2141 0.833313 1.68042 0.833313 2.16665V31.8333C0.833313 32.3195 1.02647 32.7859 1.37028 33.1297C1.7141 33.4735 2.18042 33.6666 2.66665 33.6666H18.6333V20.75H14.3V15.75H18.6333V12C18.5435 11.1196 18.6475 10.2302 18.9378 9.39421C19.2282 8.55823 19.6979 7.79589 20.3141 7.16067C20.9303 6.52544 21.6779 6.03271 22.5047 5.71704C23.3314 5.40137 24.2172 5.2704 25.1 5.33331C26.3972 5.32436 27.6939 5.39114 28.9833 5.53331V10.0333H26.3333C24.2333 10.0333 23.8333 11.0333 23.8333 12.4833V15.7H28.8333L28.1833 20.7H23.8333V33.6666H32.3333C32.5741 33.6666 32.8125 33.6192 33.0349 33.5271C33.2573 33.435 33.4594 33.2999 33.6297 33.1297C33.7999 32.9594 33.935 32.7573 34.0271 32.5349C34.1192 32.3125 34.1666 32.0741 34.1666 31.8333V2.16665C34.1666 1.92589 34.1192 1.68749 34.0271 1.46506C33.935 1.24263 33.7999 1.04052 33.6297 0.870284C33.4594 0.700043 33.2573 0.565001 33.0349 0.472867C32.8125 0.380734 32.5741 0.333313 32.3333 0.333313Z" fill="#F5F5F5"/>
</svg>
