<svg width="41" height="40" viewBox="0 0 41 40" fill="none" xmlns="http://www.w3.org/2000/svg">
<path fill-rule="evenodd" clip-rule="evenodd" d="M20.5 0C9.454 0 0.5 8.954 0.5 20C0.5 23.78 1.55 27.32 3.376 30.336L1.592 36.4C1.48957 36.7482 1.48283 37.1175 1.57249 37.4692C1.66215 37.8208 1.8449 38.1418 2.10152 38.3985C2.35814 38.6551 2.67916 38.8378 3.03083 38.9275C3.3825 39.0172 3.75183 39.0104 4.1 38.908L10.164 37.124C13.2815 39.0099 16.8565 40.0046 20.5 40C31.546 40 40.5 31.046 40.5 20C40.5 8.954 31.546 0 20.5 0ZM15.976 24.526C20.022 28.57 23.884 29.104 25.248 29.154C27.322 29.23 29.342 27.646 30.128 25.808C30.2264 25.5792 30.262 25.3282 30.231 25.0811C30.2001 24.8339 30.1038 24.5995 29.952 24.402C28.856 23.002 27.374 21.996 25.926 20.996C25.6238 20.7865 25.2522 20.7023 24.8892 20.7612C24.5263 20.8202 24.2003 21.0176 23.98 21.312L22.78 23.142C22.7166 23.24 22.6183 23.3102 22.505 23.3385C22.3917 23.3667 22.272 23.3508 22.17 23.294C21.356 22.828 20.17 22.036 19.318 21.184C18.466 20.332 17.722 19.2 17.304 18.438C17.2534 18.3409 17.2391 18.229 17.2637 18.1223C17.2883 18.0156 17.3501 17.9212 17.438 17.856L19.286 16.484C19.5505 16.2552 19.7213 15.9368 19.7655 15.5899C19.8098 15.243 19.7245 14.8919 19.526 14.604C18.63 13.292 17.586 11.624 16.072 10.518C15.8762 10.3773 15.6474 10.2896 15.4077 10.2633C15.168 10.237 14.9256 10.2731 14.704 10.368C12.864 11.156 11.272 13.176 11.348 15.254C11.398 16.618 11.932 20.48 15.976 24.526Z" fill="#F5F5F5"/>
</svg>
