<svg width="35" height="24" viewBox="0 0 35 24" fill="none" xmlns="http://www.w3.org/2000/svg">
<path d="M14.1666 17L22.8166 12L14.1666 6.99998V17ZM33.4333 3.94998C33.65 4.73331 33.8 5.78331 33.9 7.11665C34.0166 8.44998 34.0667 9.59998 34.0667 10.6L34.1666 12C34.1666 15.65 33.9 18.3333 33.4333 20.05C33.0166 21.55 32.05 22.5166 30.55 22.9333C29.7666 23.15 28.3333 23.3 26.1333 23.4C23.9666 23.5166 21.9833 23.5666 20.15 23.5666L17.5 23.6666C10.5166 23.6666 6.16665 23.4 4.44998 22.9333C2.94998 22.5166 1.98331 21.55 1.56665 20.05C1.34998 19.2666 1.19998 18.2166 1.09998 16.8833C0.983313 15.55 0.933313 14.4 0.933313 13.4L0.833313 12C0.833313 8.34998 1.09998 5.66665 1.56665 3.94998C1.98331 2.44998 2.94998 1.48331 4.44998 1.06665C5.23331 0.84998 6.66665 0.699979 8.86665 0.599979C11.0333 0.483313 13.0166 0.433313 14.85 0.433313L17.5 0.333313C24.4833 0.333313 28.8333 0.59998 30.55 1.06665C32.05 1.48331 33.0166 2.44998 33.4333 3.94998Z" fill="#F5F5F5"/>
</svg>
